<svg xmlns="http://www.w3.org/2000/svg" xmlns:xlink="http://www.w3.org/1999/xlink" width="1080" zoomAndPan="magnify" viewBox="0 0 810 809.999993" height="1080" preserveAspectRatio="xMidYMid meet" version="1.0"><defs><g/><clipPath id="5a6c3fceb5"><path d="M 32 32 L 766 32 L 766 538 L 32 538 Z M 32 32 " clip-rule="nonzero"/></clipPath><clipPath id="b033bee29b"><path d="M 22.828125 120.625 L 715.96875 22.414062 L 776.402344 448.960938 L 83.261719 547.171875 Z M 22.828125 120.625 " clip-rule="nonzero"/></clipPath><clipPath id="b487dda01c"><path d="M 96.34375 110.207031 L 640.871094 33.054688 C 681.472656 27.304688 719.050781 55.554688 724.800781 96.15625 L 764.40625 375.671875 C 770.15625 416.273438 741.90625 453.851562 701.304688 459.601562 L 156.777344 536.753906 C 116.175781 542.507812 78.601562 514.257812 72.847656 473.65625 L 33.242188 194.140625 C 27.492188 153.539062 55.742188 115.960938 96.34375 110.207031 Z M 96.34375 110.207031 " clip-rule="nonzero"/></clipPath><clipPath id="2df894b66d"><path d="M 491.820312 421.691406 L 562.519531 421.691406 L 562.519531 514.320312 L 491.820312 514.320312 Z M 491.820312 421.691406 " clip-rule="nonzero"/></clipPath><clipPath id="81eb594159"><path d="M 534.847656 427.164062 L 561.386719 494.742188 C 563.117188 499.148438 562.558594 504.125 559.890625 508.035156 C 557.226562 511.945312 552.796875 514.285156 548.066406 514.285156 L 506.273438 514.285156 C 501.542969 514.285156 497.113281 511.945312 494.449219 508.035156 C 491.78125 504.125 491.222656 499.148438 492.953125 494.742188 L 519.492188 427.164062 C 520.734375 424.007812 523.777344 421.933594 527.171875 421.933594 C 530.5625 421.933594 533.605469 424.007812 534.847656 427.164062 Z M 534.847656 427.164062 " clip-rule="nonzero"/></clipPath><clipPath id="3da1c34197"><path d="M 448 456 L 609 456 L 609 611 L 448 611 Z M 448 456 " clip-rule="nonzero"/></clipPath><clipPath id="d6834b1256"><path d="M 269.367188 236.957031 L 786.957031 401.121094 L 645.015625 848.652344 L 127.425781 684.488281 Z M 269.367188 236.957031 " clip-rule="nonzero"/></clipPath><clipPath id="42fa933781"><path d="M 269.367188 236.957031 L 786.957031 401.121094 L 645.015625 848.652344 L 127.425781 684.488281 Z M 269.367188 236.957031 " clip-rule="nonzero"/></clipPath><clipPath id="eb3514f3cc"><path d="M 351 360 L 705 360 L 705 708 L 351 708 Z M 351 360 " clip-rule="nonzero"/></clipPath><clipPath id="1a82b2b2b8"><path d="M 269.367188 236.957031 L 786.957031 401.121094 L 645.015625 848.652344 L 127.425781 684.488281 Z M 269.367188 236.957031 " clip-rule="nonzero"/></clipPath><clipPath id="3e4192bff8"><path d="M 269.367188 236.957031 L 786.957031 401.121094 L 645.015625 848.652344 L 127.425781 684.488281 Z M 269.367188 236.957031 " clip-rule="nonzero"/></clipPath><clipPath id="2359726ba3"><path d="M 135 549 L 499 549 L 499 689 L 135 689 Z M 135 549 " clip-rule="nonzero"/></clipPath><clipPath id="5b251ecb5a"><path d="M 269.367188 236.957031 L 786.957031 401.121094 L 645.015625 848.652344 L 127.425781 684.488281 Z M 269.367188 236.957031 " clip-rule="nonzero"/></clipPath><clipPath id="f10d5bae74"><path d="M 269.367188 236.957031 L 786.957031 401.121094 L 645.015625 848.652344 L 127.425781 684.488281 Z M 269.367188 236.957031 " clip-rule="nonzero"/></clipPath><clipPath id="018e06e766"><path d="M 409 414 L 465 414 L 465 461 L 409 461 Z M 409 414 " clip-rule="nonzero"/></clipPath><clipPath id="6bb8bde410"><path d="M 269.367188 236.957031 L 786.957031 401.121094 L 645.015625 848.652344 L 127.425781 684.488281 Z M 269.367188 236.957031 " clip-rule="nonzero"/></clipPath><clipPath id="90aa5b920c"><path d="M 269.367188 236.957031 L 786.957031 401.121094 L 645.015625 848.652344 L 127.425781 684.488281 Z M 269.367188 236.957031 " clip-rule="nonzero"/></clipPath><clipPath id="9771eb1d4d"><path d="M 586 352 L 621 352 L 621 414 L 586 414 Z M 586 352 " clip-rule="nonzero"/></clipPath><clipPath id="17b0a21b98"><path d="M 269.367188 236.957031 L 786.957031 401.121094 L 645.015625 848.652344 L 127.425781 684.488281 Z M 269.367188 236.957031 " clip-rule="nonzero"/></clipPath><clipPath id="8900fbb68f"><path d="M 269.367188 236.957031 L 786.957031 401.121094 L 645.015625 848.652344 L 127.425781 684.488281 Z M 269.367188 236.957031 " clip-rule="nonzero"/></clipPath><clipPath id="0cec1b056f"><path d="M 654 598 L 709 598 L 709 645 L 654 645 Z M 654 598 " clip-rule="nonzero"/></clipPath><clipPath id="0fb24aa675"><path d="M 269.367188 236.957031 L 786.957031 401.121094 L 645.015625 848.652344 L 127.425781 684.488281 Z M 269.367188 236.957031 " clip-rule="nonzero"/></clipPath><clipPath id="be89874ab6"><path d="M 269.367188 236.957031 L 786.957031 401.121094 L 645.015625 848.652344 L 127.425781 684.488281 Z M 269.367188 236.957031 " clip-rule="nonzero"/></clipPath><clipPath id="2093821bdd"><path d="M 498 645 L 532 645 L 532 707 L 498 707 Z M 498 645 " clip-rule="nonzero"/></clipPath><clipPath id="8481e38a1f"><path d="M 269.367188 236.957031 L 786.957031 401.121094 L 645.015625 848.652344 L 127.425781 684.488281 Z M 269.367188 236.957031 " clip-rule="nonzero"/></clipPath><clipPath id="635156bfc8"><path d="M 269.367188 236.957031 L 786.957031 401.121094 L 645.015625 848.652344 L 127.425781 684.488281 Z M 269.367188 236.957031 " clip-rule="nonzero"/></clipPath><clipPath id="c7af585a89"><path d="M 662 461 L 724 461 L 724 493 L 662 493 Z M 662 461 " clip-rule="nonzero"/></clipPath><clipPath id="2e3f5ed0ed"><path d="M 269.367188 236.957031 L 786.957031 401.121094 L 645.015625 848.652344 L 127.425781 684.488281 Z M 269.367188 236.957031 " clip-rule="nonzero"/></clipPath><clipPath id="eede7f2441"><path d="M 269.367188 236.957031 L 786.957031 401.121094 L 645.015625 848.652344 L 127.425781 684.488281 Z M 269.367188 236.957031 " clip-rule="nonzero"/></clipPath></defs><g clip-path="url(#5a6c3fceb5)"><g clip-path="url(#b033bee29b)"><g clip-path="url(#b487dda01c)"><path fill="#000000" d="M 22.828125 120.625 L 714.300781 22.652344 L 774.738281 449.199219 L 83.261719 547.171875 Z M 22.828125 120.625 " fill-opacity="1" fill-rule="nonzero"/></g></g></g><g fill="#ffffff" fill-opacity="1"><g transform="translate(161.782481, 435.896533)"><g><path d="M 196.421875 -112.0625 C 196.835938 -94.488281 193.023438 -78.34375 184.984375 -63.625 C 176.941406 -48.914062 165.5 -36.890625 150.65625 -27.546875 C 135.820312 -18.203125 119.195312 -12.453125 100.78125 -10.296875 C 84.226562 -8.378906 69.3125 -10.222656 56.03125 -15.828125 C 42.757812 -21.429688 31.648438 -30.660156 22.703125 -43.515625 C 13.765625 -56.367188 7.597656 -71.742188 4.203125 -89.640625 C 1.472656 -103.628906 0.535156 -121.375 1.390625 -142.875 C 2.253906 -164.382812 6.359375 -183.9375 13.703125 -201.53125 C 21.054688 -219.132812 30.675781 -233.597656 42.5625 -244.921875 C 59.332031 -260.773438 79.675781 -270.101562 103.59375 -272.90625 C 129.582031 -276 151.238281 -270.8125 168.5625 -257.34375 C 185.882812 -243.875 197.1875 -223.421875 202.46875 -195.984375 L 152.203125 -189.28125 C 150.035156 -205.113281 145.289062 -216.265625 137.96875 -222.734375 C 130.65625 -229.210938 120.316406 -231.769531 106.953125 -230.40625 C 89.660156 -228.625 76.359375 -220.554688 67.046875 -206.203125 C 57.742188 -191.847656 52.882812 -172.078125 52.46875 -146.890625 C 52.082031 -122.421875 52.929688 -104.25 55.015625 -92.375 C 57.660156 -77.3125 62.570312 -66.617188 69.75 -60.296875 C 76.9375 -53.972656 86.113281 -51.398438 97.28125 -52.578125 C 112.726562 -54.097656 124.53125 -59.421875 132.6875 -68.546875 C 140.851562 -77.671875 145.425781 -89.78125 146.40625 -104.875 Z M 196.421875 -112.0625 "/></g></g></g><g fill="#ffffff" fill-opacity="1"><g transform="translate(423.494047, 400.080439)"><g><path d="M 196.421875 -112.0625 C 196.835938 -94.488281 193.023438 -78.34375 184.984375 -63.625 C 176.941406 -48.914062 165.5 -36.890625 150.65625 -27.546875 C 135.820312 -18.203125 119.195312 -12.453125 100.78125 -10.296875 C 84.226562 -8.378906 69.3125 -10.222656 56.03125 -15.828125 C 42.757812 -21.429688 31.648438 -30.660156 22.703125 -43.515625 C 13.765625 -56.367188 7.597656 -71.742188 4.203125 -89.640625 C 1.472656 -103.628906 0.535156 -121.375 1.390625 -142.875 C 2.253906 -164.382812 6.359375 -183.9375 13.703125 -201.53125 C 21.054688 -219.132812 30.675781 -233.597656 42.5625 -244.921875 C 59.332031 -260.773438 79.675781 -270.101562 103.59375 -272.90625 C 129.582031 -276 151.238281 -270.8125 168.5625 -257.34375 C 185.882812 -243.875 197.1875 -223.421875 202.46875 -195.984375 L 152.203125 -189.28125 C 150.035156 -205.113281 145.289062 -216.265625 137.96875 -222.734375 C 130.65625 -229.210938 120.316406 -231.769531 106.953125 -230.40625 C 89.660156 -228.625 76.359375 -220.554688 67.046875 -206.203125 C 57.742188 -191.847656 52.882812 -172.078125 52.46875 -146.890625 C 52.082031 -122.421875 52.929688 -104.25 55.015625 -92.375 C 57.660156 -77.3125 62.570312 -66.617188 69.75 -60.296875 C 76.9375 -53.972656 86.113281 -51.398438 97.28125 -52.578125 C 112.726562 -54.097656 124.53125 -59.421875 132.6875 -68.546875 C 140.851562 -77.671875 145.425781 -89.78125 146.40625 -104.875 Z M 196.421875 -112.0625 "/></g></g></g><g clip-path="url(#2df894b66d)"><g clip-path="url(#81eb594159)"><path fill="#ffffff" d="M 485.273438 407.617188 L 569.066406 407.617188 L 569.066406 514.320312 L 485.273438 514.320312 Z M 485.273438 407.617188 " fill-opacity="1" fill-rule="nonzero"/></g></g><g clip-path="url(#3da1c34197)"><g clip-path="url(#d6834b1256)"><g clip-path="url(#42fa933781)"><path fill="#ffffff" d="M 481.925781 610.816406 L 492.398438 555.121094 L 448.003906 517.390625 L 504.207031 510.140625 L 526.375 456.257812 L 550.640625 507.46875 L 608.734375 511.902344 L 567.527344 550.804688 L 581.261719 607.425781 L 531.53125 580.253906 Z M 481.925781 610.816406 " fill-opacity="1" fill-rule="nonzero"/></g></g></g><g clip-path="url(#eb3514f3cc)"><g clip-path="url(#1a82b2b2b8)"><g clip-path="url(#3e4192bff8)"><path stroke-linecap="butt" transform="matrix(0.157583, 7.12656, -7.12656, 0.157583, 5038.17863, -3538.585122)" fill="none" stroke-linejoin="miter" d="M 567.830089 651.890005 L 560.051211 650.248474 L 554.621775 656.357866 L 553.77925 648.452804 L 546.290849 645.176608 L 553.548518 641.932133 L 554.350499 633.798142 L 559.678821 639.698139 L 567.662613 637.947467 L 563.697488 644.837978 Z M 567.830089 651.890005 " stroke="#000000" stroke-width="2.386" stroke-opacity="1" stroke-miterlimit="4"/></g></g></g><g clip-path="url(#2359726ba3)"><g clip-path="url(#5b251ecb5a)"><g clip-path="url(#f10d5bae74)"><path fill="#ff3131" d="M 493.125 549.195312 C 497.089844 554.054688 497.394531 553.960938 498.734375 558.035156 L 147.53125 688.726562 C 146.777344 688.984375 145.964844 688.585938 145.707031 687.832031 L 135.960938 659.421875 C 135.703125 658.667969 136.101562 657.855469 136.855469 657.597656 C 185.417969 646.800781 490.640625 550.265625 493.125 549.195312 Z M 493.125 549.195312 " fill-opacity="1" fill-rule="nonzero"/></g></g></g><g clip-path="url(#018e06e766)"><g clip-path="url(#6bb8bde410)"><g clip-path="url(#90aa5b920c)"><path fill="#ff3131" d="M 464.375 460.777344 L 423.28125 414.097656 L 409.839844 428.351562 Z M 464.375 460.777344 " fill-opacity="1" fill-rule="nonzero"/></g></g></g><g clip-path="url(#9771eb1d4d)"><g clip-path="url(#17b0a21b98)"><g clip-path="url(#8900fbb68f)"><path fill="#ff3131" d="M 586.949219 413.660156 L 620.675781 361.40625 L 603.296875 352.359375 Z M 586.949219 413.660156 " fill-opacity="1" fill-rule="nonzero"/></g></g></g><g clip-path="url(#0cec1b056f)"><g clip-path="url(#0fb24aa675)"><g clip-path="url(#be89874ab6)"><path fill="#ff3131" d="M 654.394531 598.171875 L 695.488281 644.855469 L 708.929688 630.597656 Z M 654.394531 598.171875 " fill-opacity="1" fill-rule="nonzero"/></g></g></g><g clip-path="url(#2093821bdd)"><g clip-path="url(#8481e38a1f)"><g clip-path="url(#635156bfc8)"><path fill="#ff3131" d="M 531.851562 645.378906 L 498.125 697.632812 L 515.503906 706.683594 Z M 531.851562 645.378906 " fill-opacity="1" fill-rule="nonzero"/></g></g></g><g clip-path="url(#c7af585a89)"><g clip-path="url(#2e3f5ed0ed)"><g clip-path="url(#eede7f2441)"><path fill="#ff3131" d="M 662.886719 492.148438 L 723.835938 479.761719 L 718.164062 461.007812 Z M 662.886719 492.148438 " fill-opacity="1" fill-rule="nonzero"/></g></g></g></svg>